<?xml version="1.0"?>
<svg xmlns="http://www.w3.org/2000/svg" xmlns:xlink="http://www.w3.org/1999/xlink" version="1.1" id="Capa_1" x="0px" y="0px" viewBox="0 0 480 480" style="enable-background:new 0 0 480 480;" xml:space="preserve" width="512px" height="512px" class=""><g><path style="fill:#04458F" d="M440,44.197c-0.002-8.837-7.167-15.998-16.003-15.997c-0.949,0-1.895,0.085-2.829,0.253L24,99.789  h416V44.197z" data-original="#7CB8FF" class="" data-old_color="#7CB8FF"/><path style="fill:#04458F" d="M456,99.789H24c-8.837,0-16,7.163-16,16v320c0,8.837,7.163,16,16,16h432c8.837,0,16-7.163,16-16v-112  H328c-8.837,0-16-7.163-16-16v-64c0-8.837,7.163-16,16-16h144v-112C472,106.952,464.837,99.789,456,99.789z" data-original="#BDDBFF" class="active-path" data-old_color="#BDDBFF"/><path style="fill:#04458F" d="M312,243.789v64c0,8.837,7.163,16,16,16h144v-96H328C319.163,227.789,312,234.952,312,243.789z   M360,259.789c8.837,0,16,7.163,16,16s-7.163,16-16,16s-16-7.163-16-16S351.163,259.789,360,259.789z" data-original="#7CB8FF" class="" data-old_color="#7CB8FF"/><circle style="fill:#DD3FE6" cx="360" cy="275.789" r="16" data-original="#398DF3" class="" data-old_color="#398DF3"/><g>
	<path style="fill:#FFFFFF" d="M456,91.789h-8V44.197c-0.008-13.255-10.76-23.994-24.015-23.986   c-1.417,0.001-2.831,0.127-4.225,0.377L22.584,91.917h-0.056C9.9,92.693,0.044,103.137,0,115.789v320c0,13.255,10.745,24,24,24h432   c13.255,0,24-10.745,24-24v-320C480,102.534,469.255,91.789,456,91.789z M422.584,36.325c4.349-0.782,8.508,2.109,9.29,6.458   c0.084,0.467,0.126,0.94,0.126,1.414v47.592H113.792L422.584,36.325z M456,443.789H24c-4.418,0-8-3.582-8-8v-320   c0-4.418,3.582-8,8-8h432c4.418,0,8,3.582,8,8v104H328c-13.255,0-24,10.745-24,24v64c0,13.255,10.745,24,24,24h136v104   C464,440.207,460.418,443.789,456,443.789z M464,315.789H328c-4.418,0-8-3.582-8-8v-64c0-4.418,3.582-8,8-8h136V315.789z" data-original="#231F20" class="" data-old_color="#231F20"/>
	<path style="fill:#FFFFFF" d="M360,299.789c-13.255,0-24-10.745-24-24s10.745-24,24-24s24,10.745,24,24   S373.255,299.789,360,299.789z M360,267.789c-4.418,0-8,3.582-8,8s3.582,8,8,8s8-3.582,8-8S364.418,267.789,360,267.789z" data-original="#231F20" class="" data-old_color="#231F20"/>
</g></g> </svg>
