<?xml version="1.0"?>
<svg xmlns="http://www.w3.org/2000/svg" id="Capa_1" enable-background="new 0 0 512 512" height="512px" viewBox="0 0 512 512" width="512px" class=""><g><path d="m288.056 491.397h-64.113c-2.209 0-4-1.791-4-4v-79.396h72.113v79.396c0 2.209-1.791 4-4 4z" fill="#d4d4d4" data-original="#D4D4D4" class="" data-old_color="#d4d4d4" style="fill:#1C0674"/><path d="m261.151 408.001v83.396h26.905c2.209 0 4-1.791 4-4v-79.396z" fill="#bdbdbd" data-original="#BDBDBD" class="active-path" style="fill:#0B6EE4" data-old_color="#bdbdbd"/><path d="m161.351 277.119s-107.351 10.065-107.351 114.636c0 88.074 52.442 114.052 68.99 120.056 2.184.792 4.408-1.034 4.06-3.328-2.974-19.646-8.201-91.942 75.926-91.942z" fill="#8c9eff" data-original="#8C9EFF" class="" style="fill:#04458F" data-old_color="#8c9eff"/><path d="m350.649 277.119s107.351 10.065 107.351 114.636c0 88.074-52.442 114.052-68.99 120.056-2.184.792-4.408-1.034-4.06-3.328 2.974-19.646 8.201-91.942-75.926-91.942z" fill="#8c9eff" data-original="#8C9EFF" class="" style="fill:#04458F" data-old_color="#8c9eff"/><path d="m350.649 277.119-2.043 6.842c31.797 10.979 78.475 38.835 78.475 107.795 0 56.002-21.203 86.893-40.899 103.512-.209 5.437-.75 10.024-1.233 13.216-.347 2.294 1.877 4.121 4.06 3.328 16.547-6.005 68.99-31.983 68.99-120.056.001-104.572-107.35-114.637-107.35-114.637z" fill="#7488ed" data-original="#7488ED" class=""/><path d="m372.926 199.971c0 72.405-54.309 216.432-62.349 237.358-.594 1.546-2.076 2.559-3.731 2.559h-101.691c-1.656 0-3.138-1.013-3.731-2.559-8.04-20.926-62.349-164.953-62.349-237.358 0-128.684 103.086-192.343 115.667-199.633.777-.45 1.729-.45 2.506 0 12.582 7.289 115.678 70.948 115.678 199.633z" fill="#ff3d7a" data-original="#FF3D7A" class="" style="fill:#202095" data-old_color="#ff3d7a"/><path d="m257.251.34c-.779-.451-1.734-.451-2.513 0-2.237 1.296-7.336 4.38-14.196 9.279 31.769 22.69 101.477 84.529 101.477 190.352 0 78.193-63.339 239.917-63.339 239.917h28.164c1.656 0 3.138-1.013 3.731-2.559 8.04-20.926 62.349-164.953 62.349-237.358.002-128.673-103.075-192.332-115.673-199.631z" fill="#eb3870" data-original="#EB3870" class="" style="fill:#1273EB" data-old_color="#eb3870"/><circle cx="256" cy="207.582" fill="#bdf9ff" r="79.324" data-original="#BDF9FF" class="" style="fill:#BDF9FF"/><path d="m247.086 241.349-11.705 6.139c-6.297 3.303-13.656-2.032-12.454-9.027l2.236-13.003c1.066-6.199-.994-12.525-5.509-16.915l-9.47-9.209c-5.094-4.954-2.283-13.585 4.757-14.605l13.087-1.897c6.239-.904 11.633-4.814 14.423-10.454l5.853-11.831c3.148-6.364 12.245-6.364 15.394 0l5.853 11.831c2.79 5.64 8.184 9.55 14.423 10.454l13.087 1.897c7.04 1.021 9.851 9.652 4.757 14.605l-9.47 9.209c-4.515 4.39-6.575 10.716-5.509 16.915l2.236 13.003c1.203 6.995-6.157 12.329-12.454 9.027l-11.705-6.139c-5.583-2.927-12.249-2.927-17.83 0z" fill="#ffca28" data-original="#FFCA28" class="" data-old_color="#ffca28" style="fill:#5F6FDA"/><path d="m256 120.758c-47.875 0-86.824 38.949-86.824 86.823 0 47.875 38.949 86.824 86.824 86.824s86.824-38.949 86.824-86.824c0-47.873-38.949-86.823-86.824-86.823zm0 158.648c-39.604 0-71.824-32.22-71.824-71.824s32.22-71.823 71.824-71.823 71.824 32.22 71.824 71.823c0 39.604-32.22 71.824-71.824 71.824z" fill="#8c9eff" data-original="#8C9EFF" class="" style="fill:#04458F" data-old_color="#8c9eff"/></g> </svg>
