<?xml version="1.0"?>
<svg xmlns="http://www.w3.org/2000/svg" id="Layer_1" enable-background="new 0 0 512 512" height="512px" viewBox="0 0 512 512" width="512px"><g><g><path d="m496 208c8.837 0 16-7.164 16-16s-7.163-16-16-16h-24v-32h24c8.837 0 16-7.164 16-16s-7.163-16-16-16h-24v-26c0-25.364-20.636-46-46-46h-26v-24c0-8.836-7.163-16-16-16s-16 7.164-16 16v24h-32v-24c0-8.836-7.163-16-16-16s-16 7.164-16 16v24h-32v-24c0-8.836-7.163-16-16-16-8.836 0-16 7.164-16 16v24h-32v-24c0-8.836-7.164-16-16-16s-16 7.164-16 16v24h-32v-24c0-8.836-7.164-16-16-16s-16 7.164-16 16v24h-26c-25.364 0-46 20.636-46 46v26h-24c-8.836 0-16 7.164-16 16s7.164 16 16 16h24v32h-24c-8.836 0-16 7.164-16 16s7.164 16 16 16h24v32h-24c-8.836 0-16 7.164-16 16s7.164 16 16 16h24v32h-24c-8.836 0-16 7.164-16 16s7.164 16 16 16h24v32h-24c-8.836 0-16 7.164-16 16s7.164 16 16 16h24v26c0 25.364 20.636 46 46 46h26v24c0 8.836 7.164 16 16 16s16-7.164 16-16v-24h32v24c0 8.836 7.164 16 16 16s16-7.164 16-16v-24h32v24c0 8.836 7.164 16 16 16 8.837 0 16-7.164 16-16v-24h32v24c0 8.836 7.163 16 16 16s16-7.164 16-16v-24h32v24c0 8.836 7.163 16 16 16s16-7.164 16-16v-24h26c25.364 0 46-20.636 46-46v-26h24c8.837 0 16-7.164 16-16s-7.163-16-16-16h-24v-32h24c8.837 0 16-7.164 16-16s-7.163-16-16-16h-24v-32h24c8.837 0 16-7.164 16-16s-7.163-16-16-16h-24v-32zm-56 218c0 7.72-6.28 14-14 14h-340c-7.72 0-14-6.28-14-14v-340c0-7.72 6.28-14 14-14h340c7.72 0 14 6.28 14 14z" data-original="#000000" class="active-path" data-old_color="#000000" fill="#4949E7"/><path d="m370 416h-228c-25.364 0-46-20.636-46-46v-228c0-25.364 20.636-46 46-46h228c25.364 0 46 20.636 46 46v228c0 25.364-20.636 46-46 46zm-228-288c-7.72 0-14 6.28-14 14v228c0 7.72 6.28 14 14 14h228c7.72 0 14-6.28 14-14v-228c0-7.72-6.28-14-14-14z" data-original="#000000" class="active-path" data-old_color="#000000" fill="#4949E7"/><path d="m168.02 184c-8.836 0-16.005-7.164-16.005-16s7.158-16 15.995-16h.01c8.836 0 16 7.164 16 16s-7.164 16-16 16z" data-original="#000000" class="active-path" data-old_color="#000000" fill="#4949E7"/><path d="m168.02 360c-8.836 0-16.005-7.164-16.005-16s7.158-16 15.995-16h.01c8.836 0 16 7.164 16 16s-7.164 16-16 16z" data-original="#000000" class="active-path" data-old_color="#000000" fill="#4949E7"/><path d="m344.02 360c-8.836 0-16.005-7.164-16.005-16s7.159-16 15.995-16h.01c8.837 0 16 7.164 16 16s-7.164 16-16 16z" data-original="#000000" class="active-path" data-old_color="#000000" fill="#4949E7"/><path d="m344.02 184c-8.836 0-16.005-7.164-16.005-16s7.159-16 15.995-16h.01c8.837 0 16 7.164 16 16s-7.164 16-16 16z" data-original="#000000" class="active-path" data-old_color="#000000" fill="#4949E7"/></g></g> </svg>
