<?xml version="1.0"?>
<svg xmlns="http://www.w3.org/2000/svg" id="Capa_1" enable-background="new 0 0 512 512" height="512px" viewBox="0 0 512 512" width="512px"><g><g><path d="m437.02 74.98c-48.353-48.351-112.64-74.98-181.02-74.98s-132.667 26.629-181.02 74.98c-48.351 48.353-74.98 112.64-74.98 181.02s26.629 132.667 74.98 181.02c48.353 48.351 112.64 74.98 181.02 74.98s132.667-26.629 181.02-74.98c48.351-48.353 74.98-112.64 74.98-181.02s-26.629-132.667-74.98-181.02zm-181.02 407.02c-124.617 0-226-101.383-226-226s101.383-226 226-226 226 101.383 226 226-101.383 226-226 226z" data-original="#000000" class="active-path" data-old_color="#000000" fill="#2B2A2A"/><path d="m256 271c-8.284 0-15 6.716-15 15v30c0 8.284 6.716 15 15 15s15-6.716 15-15v-30c0-8.284-6.716-15-15-15z" data-original="#000000" class="active-path" data-old_color="#000000" fill="#2B2A2A"/><path d="m356 211h-5v-15c0-52.383-42.617-95-95-95s-95 42.617-95 95v15h-5c-8.284 0-15 6.716-15 15v150c0 8.284 6.716 15 15 15h200c8.284 0 15-6.716 15-15v-150c0-8.284-6.716-15-15-15zm-165-15c0-35.841 29.159-65 65-65s65 29.159 65 65v15h-130zm150 165h-170v-120h170z" data-original="#000000" class="active-path" data-old_color="#000000" fill="#2B2A2A"/></g></g> </svg>
