<?xml version="1.0"?>
<svg xmlns="http://www.w3.org/2000/svg" xmlns:xlink="http://www.w3.org/1999/xlink" version="1.1" id="Capa_1" x="0px" y="0px" viewBox="0 0 512 512" style="enable-background:new 0 0 512 512;" xml:space="preserve" width="512px" height="512px" class=""><g><g>
	<g>
		<g>
			<path d="M256,0C114.615,0,0,114.615,0,256s114.615,256,256,256s256-114.615,256-256S397.385,0,256,0z M256,480     C132.288,480,32,379.712,32,256S132.288,32,256,32s224,100.288,224,224S379.712,480,256,480z" data-original="#000000" class="active-path" data-old_color="#000000" fill="#9393F2"/>
			<path d="M336,160h-16v-32c0.974-16.673-11.753-30.978-28.426-31.952c-0.444-0.026-0.889-0.042-1.334-0.048h-68.48     c-16.786,0.33-30.127,14.205-29.797,30.992c0.007,0.336,0.019,0.672,0.037,1.008v32h-16c-26.51,0-48,21.49-48,48v128     c0,26.51,21.49,48,48,48h160c26.51,0,48-21.49,48-48V208C384,181.49,362.51,160,336,160z M224,128h64v32h-64V128z M352,336     c0,8.837-7.163,16-16,16H176c-8.837,0-16-7.163-16-16V208c0-8.837,7.163-16,16-16h160c8.837,0,16,7.163,16,16V336z" data-original="#000000" class="active-path" data-old_color="#000000" fill="#9393F2"/>
			<path d="M256,224c-17.672,0.18-31.852,14.653-31.672,32.325c0.114,11.18,6.055,21.49,15.672,27.195V320c17.673,0,32-14.327,32-32     v-4.48c15.2-9.017,20.212-28.648,11.195-43.848C277.49,230.055,267.18,224.114,256,224z" data-original="#000000" class="active-path" data-old_color="#000000" fill="#9393F2"/>
		</g>
	</g>
</g></g> </svg>
